<svg viewBox="0 0 1600 1000" xmlns="http://www.w3.org/2000/svg" role="img" aria-labelledby="t1">
<title id="t1">Illustration of a cyclist riding along a city street at golden hour, with a skyline silhouette behind</title>
<defs>
  <linearGradient id="sky" x1="0" y1="0" x2="0" y2="1">
    <stop offset="0%" stop-color="#1F3F8C"/>
    <stop offset="55%" stop-color="#E8A93B"/>
    <stop offset="100%" stop-color="#E15B4B"/>
  </linearGradient>
  <linearGradient id="ground" x1="0" y1="0" x2="0" y2="1">
    <stop offset="0%" stop-color="#16306B"/>
    <stop offset="100%" stop-color="#0C1730"/>
  </linearGradient>
</defs>
<rect width="1600" height="1000" fill="url(#sky)"/>
<circle cx="1180" cy="330" r="120" fill="#FDF3DC" opacity="0.9"/>
<g opacity="0.55" fill="#0C1730">
  <rect x="0" y="560" width="120" height="260"/>
  <rect x="140" y="480" width="90" height="340"/>
  <rect x="250" y="600" width="140" height="220"/>
  <rect x="410" y="420" width="110" height="400"/>
  <rect x="540" y="520" width="160" height="300"/>
  <rect x="720" y="380" width="100" height="440"/>
  <rect x="840" y="560" width="150" height="260"/>
  <rect x="1010" y="470" width="120" height="350"/>
  <rect x="1150" y="600" width="140" height="220"/>
  <rect x="1310" y="440" width="100" height="380"/>
  <rect x="1430" y="540" width="170" height="280"/>
</g>
<rect x="0" y="800" width="1600" height="200" fill="url(#ground)"/>
<rect x="0" y="800" width="1600" height="6" fill="#E8A93B" opacity="0.6"/>
<g transform="translate(760,760)" stroke="#F7F5F0" stroke-width="10" fill="none" stroke-linecap="round" stroke-linejoin="round">
  <circle cx="0" cy="70" r="46"/>
  <circle cx="170" cy="70" r="46"/>
  <path d="M0 70 L70 10 L120 10 L170 70"/>
  <path d="M70 10 L55 70 L0 70"/>
  <path d="M120 10 L170 70"/>
  <path d="M55 70 L120 70"/>
  <path d="M55 -30 L100 -30" stroke-width="12"/>
  <circle cx="60" cy="-40" r="16" fill="#F7F5F0" stroke="none"/>
  <path d="M55 -30 Q30 20 0 70" stroke-width="8"/>
</g>
</svg>
